<?xml version="1.0"?>
<svg xmlns="http://www.w3.org/2000/svg" xmlns:xlink="http://www.w3.org/1999/xlink" version="1.1" id="Layer_1" x="0px" y="0px" viewBox="0 0 512 512" style="enable-background:new 0 0 512 512;" xml:space="preserve" width="512px" height="512px"><g><g>
	<g>
		<path d="M63,33C28.262,33,0,61.262,0,96c0,34.738,28.262,63,63,63s63-28.262,63-63S97.738,33,63,33z" data-original="#000000" class="active-path" data-old_color="#000000" fill="#BEDFE6"/>
	</g>
</g><g>
	<g>
		<path d="M63,193c-34.738,0-63,28.262-63,63c0,34.738,28.262,63,63,63s63-28.262,63-63C126,221.262,97.738,193,63,193z" data-original="#000000" class="active-path" data-old_color="#000000" fill="#BEDFE6"/>
	</g>
</g><g>
	<g>
		<path d="M63,353c-34.738,0-63,28.262-63,63c0,34.738,28.262,63,63,63s63-28.262,63-63C126,381.262,97.738,353,63,353z" data-original="#000000" class="active-path" data-old_color="#000000" fill="#BEDFE6"/>
	</g>
</g><g>
	<g>
		<path d="M465,49H207c-25.916,0-47,21.084-47,47s21.084,47,47,47h258c25.916,0,47-21.084,47-47S490.916,49,465,49z" data-original="#000000" class="active-path" data-old_color="#000000" fill="#BEDFE6"/>
	</g>
</g><g>
	<g>
		<path d="M465,209H207c-25.916,0-47,21.084-47,47s21.084,47,47,47h258c25.916,0,47-21.084,47-47S490.916,209,465,209z" data-original="#000000" class="active-path" data-old_color="#000000" fill="#BEDFE6"/>
	</g>
</g><g>
	<g>
		<path d="M465,369H207c-25.916,0-47,21.084-47,47s21.084,47,47,47h258c25.916,0,47-21.084,47-47S490.916,369,465,369z" data-original="#000000" class="active-path" data-old_color="#000000" fill="#BEDFE6"/>
	</g>
</g></g> </svg>
